<svg width="199" height="25" viewBox="0 0 199 25" fill="none" xmlns="http://www.w3.org/2000/svg">
<path d="M0.664 24L5.144 1.6H8.344L3.864 24H0.664ZM14.2183 24.192C12.7889 24.192 11.4343 24.0107 10.1543 23.648C8.89558 23.264 7.92492 22.7947 7.24225 22.24L8.61825 19.808C9.27958 20.32 10.1329 20.736 11.1783 21.056C12.2449 21.376 13.3543 21.536 14.5063 21.536C15.9783 21.536 17.0876 21.312 17.8343 20.864C18.5809 20.416 18.9543 19.808 18.9543 19.04C18.9543 18.4853 18.7303 18.0693 18.2823 17.792C17.8343 17.4933 17.2476 17.2693 16.5223 17.12C15.8183 16.9493 15.0609 16.7893 14.2503 16.64C13.4396 16.4693 12.6823 16.2347 11.9783 15.936C11.2743 15.6373 10.6876 15.2107 10.2183 14.656C9.77025 14.08 9.54625 13.3227 9.54625 12.384C9.54625 11.2533 9.86625 10.2827 10.5063 9.472C11.1463 8.64 12.0423 8 13.1943 7.552C14.3463 7.104 15.6903 6.88 17.2263 6.88C18.3356 6.88 19.4236 7.01867 20.4903 7.296C21.5783 7.552 22.4636 7.92533 23.1463 8.416L21.9303 10.848C21.2263 10.3573 20.4369 10.016 19.5623 9.824C18.6876 9.61067 17.8129 9.504 16.9383 9.504C15.5089 9.504 14.4316 9.74933 13.7063 10.24C12.9809 10.7093 12.6183 11.3067 12.6183 12.032C12.6183 12.5867 12.8423 13.024 13.2903 13.344C13.7383 13.6427 14.3143 13.8773 15.0183 14.048C15.7436 14.2187 16.5009 14.3893 17.2903 14.56C18.1009 14.7093 18.8583 14.9333 19.5623 15.232C20.2876 15.5093 20.8743 15.9253 21.3223 16.48C21.7703 17.0133 21.9943 17.7493 21.9943 18.688C21.9943 19.8613 21.6636 20.864 21.0023 21.696C20.3623 22.5067 19.4556 23.1253 18.2823 23.552C17.1089 23.9787 15.7543 24.192 14.2183 24.192ZM28.9695 24.192C27.5402 24.192 26.1855 24.0107 24.9055 23.648C23.6468 23.264 22.6762 22.7947 21.9935 22.24L23.3695 19.808C24.0308 20.32 24.8842 20.736 25.9295 21.056C26.9962 21.376 28.1055 21.536 29.2575 21.536C30.7295 21.536 31.8388 21.312 32.5855 20.864C33.3322 20.416 33.7055 19.808 33.7055 19.04C33.7055 18.4853 33.4815 18.0693 33.0335 17.792C32.5855 17.4933 31.9988 17.2693 31.2735 17.12C30.5695 16.9493 29.8122 16.7893 29.0015 16.64C28.1908 16.4693 27.4335 16.2347 26.7295 15.936C26.0255 15.6373 25.4388 15.2107 24.9695 14.656C24.5215 14.08 24.2975 13.3227 24.2975 12.384C24.2975 11.2533 24.6175 10.2827 25.2575 9.472C25.8975 8.64 26.7935 8 27.9455 7.552C29.0975 7.104 30.4415 6.88 31.9775 6.88C33.0868 6.88 34.1748 7.01867 35.2415 7.296C36.3295 7.552 37.2148 7.92533 37.8975 8.416L36.6815 10.848C35.9775 10.3573 35.1882 10.016 34.3135 9.824C33.4388 9.61067 32.5642 9.504 31.6895 9.504C30.2602 9.504 29.1828 9.74933 28.4575 10.24C27.7322 10.7093 27.3695 11.3067 27.3695 12.032C27.3695 12.5867 27.5935 13.024 28.0415 13.344C28.4895 13.6427 29.0655 13.8773 29.7695 14.048C30.4948 14.2187 31.2522 14.3893 32.0415 14.56C32.8522 14.7093 33.6095 14.9333 34.3135 15.232C35.0388 15.5093 35.6255 15.9253 36.0735 16.48C36.5215 17.0133 36.7455 17.7493 36.7455 18.688C36.7455 19.8613 36.4148 20.864 35.7535 21.696C35.1135 22.5067 34.2068 23.1253 33.0335 23.552C31.8602 23.9787 30.5055 24.192 28.9695 24.192ZM45.5767 24.192C44.1261 24.192 42.8994 23.8933 41.8967 23.296C40.9154 22.6987 40.2221 21.8347 39.8168 20.704C39.4114 19.552 39.3688 18.1653 39.6888 16.544L41.5768 7.04H44.6488L42.7608 16.576C42.4621 18.0907 42.6114 19.2853 43.2088 20.16C43.8274 21.0133 44.9154 21.44 46.4728 21.44C48.0728 21.44 49.4168 20.992 50.5048 20.096C51.5928 19.2 52.3181 17.8453 52.6808 16.032L54.4728 7.04H57.5448L54.1848 24H51.2408L52.2008 19.136L52.7448 20.448C51.9554 21.728 50.9314 22.6773 49.6728 23.296C48.4354 23.8933 47.0701 24.192 45.5767 24.192ZM66.849 24.192C65.185 24.192 63.745 23.8933 62.529 23.296C61.313 22.6773 60.3743 21.824 59.713 20.736C59.0517 19.6267 58.721 18.3253 58.721 16.832C58.721 14.912 59.137 13.2053 59.969 11.712C60.801 10.2187 61.9317 9.04533 63.361 8.192C64.8117 7.31733 66.4543 6.88 68.289 6.88C69.825 6.88 71.1583 7.17867 72.289 7.776C73.4197 8.352 74.2943 9.184 74.913 10.272C75.553 11.36 75.873 12.672 75.873 14.208C75.873 14.592 75.8517 14.9867 75.809 15.392C75.7663 15.776 75.713 16.1387 75.649 16.48H60.961L61.345 14.24H74.177L72.929 15.008C73.121 13.8133 73.0357 12.8107 72.673 12C72.3103 11.168 71.7343 10.5387 70.945 10.112C70.177 9.664 69.249 9.44 68.161 9.44C66.881 9.44 65.7503 9.74933 64.769 10.368C63.809 10.9653 63.0623 11.808 62.529 12.896C61.9957 13.9627 61.729 15.2213 61.729 16.672C61.729 18.208 62.1663 19.4027 63.041 20.256C63.937 21.088 65.2917 21.504 67.105 21.504C68.1717 21.504 69.1637 21.3333 70.081 20.992C70.9983 20.6293 71.7557 20.1493 72.353 19.552L73.665 21.76C72.8543 22.5493 71.841 23.1573 70.625 23.584C69.409 23.9893 68.1503 24.192 66.849 24.192ZM89.2133 24L93.1173 4.384H85.4692L86.0132 1.6H104.541L103.965 4.384H96.3173L92.3813 24H89.2133ZM101.444 24L104.804 7.04H107.748L106.788 11.968L106.468 10.752C107.258 9.32267 108.26 8.32 109.476 7.744C110.692 7.168 112.196 6.88 113.988 6.88L113.412 9.856C113.284 9.83467 113.156 9.824 113.028 9.824C112.9 9.824 112.762 9.824 112.612 9.824C110.927 9.824 109.53 10.2827 108.42 11.2C107.332 12.1173 106.596 13.5573 106.212 15.52L104.516 24H101.444ZM120.37 24.192C118.941 24.192 117.661 23.904 116.53 23.328C115.4 22.7307 114.504 21.888 113.842 20.8C113.202 19.712 112.882 18.4 112.882 16.864C112.882 15.4133 113.117 14.08 113.586 12.864C114.077 11.648 114.749 10.592 115.602 9.696C116.477 8.8 117.501 8.10667 118.674 7.616C119.848 7.12533 121.117 6.88 122.482 6.88C123.954 6.88 125.202 7.136 126.226 7.648C127.25 8.16 128.04 8.91733 128.594 9.92C129.149 10.9013 129.426 12.1067 129.426 13.536C129.426 15.6267 129.064 17.4827 128.338 19.104C127.613 20.704 126.568 21.952 125.202 22.848C123.858 23.744 122.248 24.192 120.37 24.192ZM121.042 21.504C122.322 21.504 123.464 21.1947 124.466 20.576C125.469 19.9573 126.248 19.1147 126.802 18.048C127.378 16.96 127.666 15.7227 127.666 14.336C127.666 12.8427 127.229 11.68 126.354 10.848C125.48 9.99467 124.232 9.568 122.61 9.568C121.352 9.568 120.221 9.87733 119.218 10.496C118.216 11.0933 117.426 11.936 116.85 13.024C116.274 14.0907 115.986 15.328 115.986 16.736C115.986 18.208 116.424 19.3707 117.298 20.224C118.173 21.0773 119.421 21.504 121.042 21.504ZM125.938 24L126.834 19.616L127.858 15.68L128.274 11.648L129.17 7.04H132.242L128.882 24H125.938ZM141.479 24.192C139.836 24.192 138.407 23.8933 137.191 23.296C135.996 22.6773 135.068 21.824 134.407 20.736C133.745 19.6267 133.415 18.336 133.415 16.864C133.415 14.944 133.841 13.2373 134.695 11.744C135.548 10.2293 136.732 9.04533 138.247 8.192C139.761 7.31733 141.479 6.88 143.399 6.88C145.041 6.88 146.449 7.18933 147.623 7.808C148.796 8.40533 149.713 9.32267 150.375 10.56L147.783 12C147.356 11.168 146.748 10.56 145.959 10.176C145.191 9.77067 144.263 9.568 143.175 9.568C141.895 9.568 140.753 9.87733 139.751 10.496C138.748 11.0933 137.959 11.936 137.383 13.024C136.807 14.0907 136.519 15.328 136.519 16.736C136.519 18.208 136.956 19.3707 137.831 20.224C138.727 21.0773 139.985 21.504 141.607 21.504C142.609 21.504 143.548 21.3013 144.423 20.896C145.319 20.4907 146.065 19.8933 146.663 19.104L148.903 20.704C148.135 21.792 147.089 22.6453 145.767 23.264C144.444 23.8827 143.015 24.192 141.479 24.192ZM153.621 19.712L154.261 15.968L165.557 7.04H169.877L160.405 14.496L158.773 15.712L153.621 19.712ZM150.229 24L154.965 0.255999H158.037L153.301 24H150.229ZM163.317 24L158.261 15.744L160.341 13.408L166.869 24H163.317ZM175.733 24.192C174.069 24.192 172.629 23.8933 171.413 23.296C170.197 22.6773 169.258 21.824 168.597 20.736C167.935 19.6267 167.605 18.3253 167.605 16.832C167.605 14.912 168.021 13.2053 168.853 11.712C169.685 10.2187 170.815 9.04533 172.245 8.192C173.695 7.31733 175.338 6.88 177.173 6.88C178.709 6.88 180.042 7.17867 181.173 7.776C182.303 8.352 183.178 9.184 183.797 10.272C184.437 11.36 184.757 12.672 184.757 14.208C184.757 14.592 184.735 14.9867 184.693 15.392C184.65 15.776 184.597 16.1387 184.533 16.48H169.845L170.229 14.24H183.061L181.813 15.008C182.005 13.8133 181.919 12.8107 181.557 12C181.194 11.168 180.618 10.5387 179.829 10.112C179.061 9.664 178.133 9.44 177.045 9.44C175.765 9.44 174.634 9.74933 173.653 10.368C172.693 10.9653 171.946 11.808 171.413 12.896C170.879 13.9627 170.613 15.2213 170.613 16.672C170.613 18.208 171.05 19.4027 171.925 20.256C172.821 21.088 174.175 21.504 175.989 21.504C177.055 21.504 178.047 21.3333 178.965 20.992C179.882 20.6293 180.639 20.1493 181.237 19.552L182.549 21.76C181.738 22.5493 180.725 23.1573 179.509 23.584C178.293 23.9893 177.034 24.192 175.733 24.192ZM185.919 24L189.279 7.04H192.223L191.263 11.968L190.943 10.752C191.733 9.32267 192.735 8.32 193.951 7.744C195.167 7.168 196.671 6.88 198.463 6.88L197.887 9.856C197.759 9.83467 197.631 9.824 197.503 9.824C197.375 9.824 197.237 9.824 197.087 9.824C195.402 9.824 194.005 10.2827 192.895 11.2C191.807 12.1173 191.071 13.5573 190.687 15.52L188.991 24H185.919Z" fill="#14142B"/>
</svg>
